<?xml version="1.0" encoding="iso-8859-1"?>
<!-- Generator: Adobe Illustrator 19.0.0, SVG Export Plug-In . SVG Version: 6.00 Build 0)  -->
<svg version="1.1" id="Layer_1" xmlns="http://www.w3.org/2000/svg" xmlns:xlink="http://www.w3.org/1999/xlink" x="0px" y="0px"
	 viewBox="0 0 512 512" style="enable-background:new 0 0 0 0;" xml:space="preserve">
<g>
	<g>
		<path style="fill:#000;" d="M489.123,468.426h-2.179V350.65c1.169,0.121,2.22,0.124,3.268,0.124
			c8.715,0,17.43-5.447,19.609-14.162c4.357-10.894-2.179-22.877-13.072-27.234l-108.936-38.623v-39.811
			c4.357,0,8.715-1.089,11.983-4.357c9.804-6.536,11.983-19.609,5.447-29.413L273.43,8.715C269.072,3.268,262.536,0,256,0
			s-13.072,3.268-17.43,8.715L106.757,198.264c-6.536,9.804-4.357,22.877,5.447,29.413c4.362,2.908,9.369,4.081,14.162,3.635v38.672
			L15.251,309.379c-10.894,4.357-17.43,16.34-13.072,27.234c2.179,8.715,10.894,14.162,19.609,14.162c1.363,0,2.727,0,4.357-0.267
			v117.918h-3.268c-11.983,0-21.787,9.804-21.787,21.787S10.894,512,22.877,512h25.055h100.221h215.694h1.089h99.132h25.055
			c11.983,0,21.787-9.804,21.787-21.787S501.106,468.426,489.123,468.426z M443.37,335.781v132.645h-55.557V316.083L443.37,335.781z
			 M169.94,296.306V204.8h174.298v84.736c-0.703,2.134-1.089,4.409-1.089,6.771v172.119h-65.362v-86.06
			c0-11.983-9.804-21.787-21.787-21.787s-21.787,9.804-21.787,21.787v86.06H169.94V296.306z M256,58.826l71.68,102.4H184.32
			L256,58.826z M69.719,335.395l56.647-20.084v153.115H69.719V335.395z"/>
	</g>
</g>
<g>
</g>
<g>
</g>
<g>
</g>
<g>
</g>
<g>
</g>
<g>
</g>
<g>
</g>
<g>
</g>
<g>
</g>
<g>
</g>
<g>
</g>
<g>
</g>
<g>
</g>
<g>
</g>
<g>
</g>
</svg>
